<svg id="Layer_1" data-name="Layer 1" xmlns="http://www.w3.org/2000/svg" viewBox="0 0 450 200"><defs><style>.cls-1{fill:#fff;}.cls-2{font-size:96.08px;font-family:AcierBATText-Noir, Acier BAT;}.cls-3{letter-spacing:0.02em;}.cls-4{letter-spacing:0.06em;}.cls-5{letter-spacing:0.02em;}.cls-6{letter-spacing:-0.02em;}.cls-7{letter-spacing:-0.02em;}</style></defs><title>logo-solopress</title><path d="M121,115c-.11,0-.38-.09-.76-.14C120.56,114.9,120.84,115,121,115Z"/><path d="M115.71,119.74c.38.05.33-.32.55-.34l.23,0-.51-.1C115.71,119.24,115.31,119.69,115.71,119.74Z"/><path d="M111.68,117c.6.34,3.08,1.43,9.21,1.43h.22c6.13,0,8.61-1.09,9.23-1.43.4-.22.51-.37.5-.41l-.23-.09a5.66,5.66,0,0,1-1.74,0,5.39,5.39,0,0,1-2.21,0,16.83,16.83,0,0,1-3,.24c-.82,0-2-.1-2.27-.13s-1.54.13-2.36.13a17.06,17.06,0,0,1-3-.24,5.32,5.32,0,0,1-2.22,0,7.66,7.66,0,0,1-2.13-.09,2.83,2.83,0,0,1-.35-.06l.42-.25h0l-.42.25a2.83,2.83,0,0,0,.35.06l-.44.18S111.27,116.78,111.68,117Z"/><path d="M117.6,119.34c-.23-.05-.94.48-.56.5s.45-.08.68-.29S117.6,119.34,117.6,119.34Z"/><path d="M88.83,182.3c-1.69-.17-3.42-.13-5.06-.39C85.41,182.17,87.14,182.14,88.83,182.3Z"/><path d="M113.72,116.19h.11l.1,0a4.57,4.57,0,0,0,2,0l.45-.07v.16a20.91,20.91,0,0,0,2.61.16c.86,0,2.29-.13,2.3-.13h.13s1.35.13,2.21.13a21.12,21.12,0,0,0,2.62-.16v-.16l.45.07a4.45,4.45,0,0,0,2,0l.1,0h.11c.54,0,.87.07,1.13.06a22.48,22.48,0,0,0-5.73-1.38,11.7,11.7,0,0,0-3,.3l-.05,0h-.48a11.82,11.82,0,0,0-3-.31,21.82,21.82,0,0,0-5.52,1.31h0A7.85,7.85,0,0,0,113.72,116.19Z"/><path d="M126.17,119.29a1.93,1.93,0,0,0-.68.13c.45.13,1.23.5,1.17.68s.9-.13.62-.53S126.61,119.27,126.17,119.29Z"/><path class="cls-1" d="M72.59,52.26c-.48,14.58-3.87,40.48,11.27,59.83,16.11,20.59,26.41,29.54,40.28,26,8.39-2.16,16.88-10.58,22.33-21.22h0c-6.4-4.23-11.41-14.18-16.64-25.71a65.8,65.8,0,0,0-25.58-29.54c-8-5.11-21.89-8.32-31.67-9.32"/><path d="M120,119.43c-.39,0-1.12.31-1,.55s.55-.21,1-.32S120,119.43,120,119.43Z"/><path d="M122.7,119.85a3.7,3.7,0,0,0,.34.42c.39,0,.55-.53.33-.61S122.47,119.53,122.7,119.85Z"/><path d="M131.11,116.85c.19-.17.23-.29.12-.37a26,26,0,0,0-5-1.57,26,26,0,0,1,5,1.57c.11.08.08.2-.12.37-.78.66-3.77,1.78-10,1.78h-.22c-5.46,0-8.42-.86-9.59-1.51,1.17.66,4.12,1.52,9.59,1.52h.22C127.34,118.63,130.33,117.52,131.11,116.85Z"/><path d="M121.4,121.75c1.46,0,2.67,0,3.71,0-1,0-2.26,0-3.71,0Z"/><path d="M47.71,32.09h0c.38-1.16.9-2.29,1.34-3.44A85.87,85.87,0,0,0,34,41.84c0,.95,0,1.94,0,2.87h0c.82,16.5,5.47,29.44,14.21,40.56C42.37,66.67,42.15,48.86,47.71,32.09Z"/><path d="M58.77,46.3A73,73,0,0,1,72.93,19.38h0c.8-1,1.58-1.84,2.36-2.63a85,85,0,0,0-22.12,9.35c-.43,1-.77,2-1.16,3h0c-7.58,19.43-7.21,40.34,1.4,62.41,0,.1,0,.19,0,.29a1.18,1.18,0,0,1,0,.53,1.41,1.41,0,0,1-.21.49c-.06.08,0,.19-.12.27s-.19.06-.28.11-.12.16-.21.2a1.57,1.57,0,0,1-.53.1,1.39,1.39,0,0,1-.93-.4s-.09,0-.12,0c-11.87-12.28-18.25-26.43-19.74-45h0c-.08-1-.1-2-.16-3.06a86.38,86.38,0,0,0-6.18,8.67c.1,1.1.1,2.32.23,3.39h0c3.47,29.79,17.57,46.84,29.59,56.1a77.16,77.16,0,0,0,25.51,12.91C53.12,93.61,53.48,64.91,58.77,46.3Z"/><path d="M24,110.22A52.2,52.2,0,0,1,13.89,91.88a48.54,48.54,0,0,1-1.28-5.24,81.37,81.37,0,0,0,.72,29.92c.89,1.08,1.79,2.13,2.72,3.14C37,142.12,69.35,145.61,69.8,145.65a1.46,1.46,0,0,1-.14,2.92h-.14c-.43,0-30.19-3.19-51.79-23h0c-1.05-1-2-2.06-3-3.11a84.08,84.08,0,0,0,5.15,13.84q2.11,2,4.25,3.84l0,0,0,0C40.73,154.24,58,158.54,71.4,159.1c19.92.82,36.9-6,43.21-9.75C96.7,147.87,46.69,137.4,24,110.22Z"/><path d="M148.26,132.18c-4,7.75-15.89,26.72-39.65,35.93-17.26,6.69-37,6.69-59,.18-1.91-.57-3.87-1.26-5.82-1.93a85.4,85.4,0,0,0,37.07,16.94c2.82-.27,5.5-.59,8-1-1.69-.17-3.42-.13-5.06-.39,1.64.26,3.37.23,5.06.39C115.12,178,122,167,122.09,166.86a1.46,1.46,0,0,1,2.54,1.46c-.32.56-5.44,9-23.51,14.32-2.66.78-5.68,1.48-8.93,2.09,1.63.09,3.27.19,4.92.19A84.74,84.74,0,0,0,130,178.33c.92-1,1.76-2.13,2.62-3.22h0a83.85,83.85,0,0,0,11.18-18.65C147.84,147,149.43,138.12,148.26,132.18Z"/><path d="M155.62,98.19h0c-.47-1.4-1.08-2.73-1.62-4.09h0a69.5,69.5,0,0,0-6.89-13.3C130.59,56.65,101.85,48.31,87,45.52h0a94.84,94.84,0,0,0-9.58-1.36,1.41,1.41,0,0,1-.67-.32h0a1.38,1.38,0,0,1-.7-1.2c.43-8.13,5.54-15.85,14-21.19a42.75,42.75,0,0,1,13-5.35h0a47.44,47.44,0,0,1,7.14-1.15,80.67,80.67,0,0,0-29,.43A28.65,28.65,0,0,0,78.1,18C72.73,23.29,65.52,33.18,61.57,47.1c-5.27,18.56-5.41,47.59,23.82,80.49A1.46,1.46,0,0,1,84.3,130l-.23,0c-.63-.1-15.66-2.64-31-14.44-12-9.2-25.9-25.89-30.23-54.33h0c-.18-1.1-.41-2.1-.55-3.22a85.43,85.43,0,0,0-7.6,18.84A49.26,49.26,0,0,0,15,83.67h0A47.94,47.94,0,0,0,26.2,108.35C51.86,139,111,146.61,118.46,146.61a1.47,1.47,0,0,1,1.42,1.82c-.72,2.9-15,10.29-32.6,12.79a90.6,90.6,0,0,1-12.61.91,78.09,78.09,0,0,1-46.28-15h0c-1.59-1.14-3.12-2.3-4.61-3.51a84.89,84.89,0,0,0,14,17.55c1.63.65,3.2,1.13,4.8,1.7h0c24.51,8.81,46.34,9.77,65,2.54,28.49-11,39.48-37.41,39.59-37.68a1.48,1.48,0,0,1,1.3-.92,1.46,1.46,0,0,1,1.36.82c3.21,6.45,2,17.67-3.33,30a87.73,87.73,0,0,1-8.09,14.55h0c-.78,1.15-1.55,2.28-2.39,3.4a84.74,84.74,0,0,0,18.17-12.39c.32-1.17.7-2.38,1-3.53h0C161.16,135.88,161.31,115.31,155.62,98.19ZM124.14,138c-13.87,3.58-24.17-5.37-40.28-26C68.72,92.74,72.11,66.83,72.59,52.26h0c9.77,1,23.64,4.21,31.67,9.32a65.8,65.8,0,0,1,25.58,29.54c5.23,11.52,10.24,21.47,16.64,25.71h0C141,127.46,132.53,135.88,124.14,138Z"/><path d="M177.82,121.2c.14,1.86.16,3.87.25,5.78a86.16,86.16,0,0,0,4.58-27.61,85.11,85.11,0,0,0-20.06-54.94,66.15,66.15,0,0,0-7.58-5.2,62.75,62.75,0,0,0-26.84-8.64,69.24,69.24,0,0,0-18.32.93,63.81,63.81,0,0,1,31.33,10.26c.9.6,1.79,1.28,2.68,1.93s1.7,1.19,2.53,1.87a68.08,68.08,0,0,1,11.17,12c.59.78,1.23,1.49,1.79,2.32h0c10.33,15,16.54,35.48,18.49,61.32"/><path d="M134.32,115.52c-1.55-1.55-3.45-3.21-6.47-3.21a7.14,7.14,0,0,0-4.2,1.1,7.24,7.24,0,0,0-4.21-1.1c-3,0-4.85,1.58-6.48,3.21a6.14,6.14,0,0,1-3.51,1.65l-.39,0,.28.14a23.74,23.74,0,0,1,3.63,2.21l.33.26c2.1,1.65,2.74,2.15,10.34,2.15h0c7.59,0,8.22-.5,10.31-2.14l.34-.27a23.8,23.8,0,0,1,3.65-2.21l.29-.14-.4,0A6.23,6.23,0,0,1,134.32,115.52Zm-14.88-3a6.33,6.33,0,0,1,4,1.14l.07,0-.07,0a6.34,6.34,0,0,0-4-1.14,6.85,6.85,0,0,0-1.91.26A6.85,6.85,0,0,1,119.44,112.5Zm3.82,3.06c-.09,0-.33-.08-.66-.13C122.93,115.49,123.17,115.54,123.27,115.56Zm-4.07,4c-.19,0-.14.36-.47.31s0-.46.24-.44l.44.1Zm1.27.14c-.19.19-.24.29-.59.26s.28-.51.48-.46C120.36,119.56,120.66,119.56,120.47,119.76Zm1.89.09c-.35.1-.73.51-.83.29s.53-.53.87-.5C122.41,119.64,122.69,119.76,122.36,119.85Zm2.71.56a3.36,3.36,0,0,1-.29-.39c-.2-.29.39-.24.58-.17S125.41,120.43,125.07,120.41Zm-1.41,1.36h0c1.26,0,2.31,0,3.21,0C126,121.75,124.92,121.77,123.66,121.77Zm4.13-2.25c.38,0,.72-.1,1,.27s-.59.65-.54.48m5.77-.82-.33.27a7.12,7.12,0,0,1-4.82,1.9,7.12,7.12,0,0,0,4.82-1.9l.33-.27a24.3,24.3,0,0,1,3.47-2.13,6.46,6.46,0,0,1-3.47-1.72c-1.49-1.5-3.32-3.1-6.13-3.1a7.53,7.53,0,0,0-3.13.61,7.52,7.52,0,0,1,3.13-.61c2.8,0,4.63,1.6,6.13,3.1a6.47,6.47,0,0,0,3.48,1.72A24.36,24.36,0,0,0,134,119.45Z"/><path d="M111.69,79.76c.67-.23,1.07-.38,1.22-.74s0-.8-.39-1.43l-.21-.39a12.94,12.94,0,0,0-3.74-4.69c-2.32-1.76-3.83-2.35-5.17-2.12a.24.24,0,0,0-.2.19.23.23,0,0,0,.1.25,32.45,32.45,0,0,1,4.56,3.29.58.58,0,0,1,.15.38c-.08.25-.81.47-1.57.71l-.11,0a14.18,14.18,0,0,1-3.48.3,37.24,37.24,0,0,1-7.41-.75c-1.18-.32-1.77-.53-2.12-.66a1.86,1.86,0,0,0-.57-.15,1,1,0,0,0-.3.06c-.34.13-.57.59-.82,1.06a3.63,3.63,0,0,1-.48.81,1,1,0,0,0-.33.77c.06.34.4.64,1.29,1.16a25.08,25.08,0,0,0,9.34,3,28.3,28.3,0,0,0,3.59.25,15.12,15.12,0,0,0,5.77-1Z"/><path d="M114.88,17.74a42.06,42.06,0,0,0-23.3,6.17c-7.15,4.52-11.65,10.82-12.51,17.46a111.86,111.86,0,0,1,12,2h0c2.19.48,4.59,1.08,7.11,1.79h0c16,4.5,37.65,14,51.29,34a70.13,70.13,0,0,1,5.09,8.76h0c.63,1.26,1.09,2.64,1.64,3.95,7.42,17.56,8.41,38.87,2.86,63.7h0c-.28,1.24-.47,2.45-.79,3.72a84.9,84.9,0,0,0,17.13-25.46c0-1.56-.13-3-.2-4.56-1.12-27.2-6.57-48.86-16.36-64.64-.58-.93-1.14-1.9-1.75-2.78h0a65.67,65.67,0,0,0-12.6-14,59,59,0,0,0-5.59-4h0c-1.06-.68-2.11-1.33-3.17-1.91h0a62.62,62.62,0,0,0-38.05-7,1.46,1.46,0,0,1-.87-2.77,69.08,69.08,0,0,1,31.45-4.51,66.68,66.68,0,0,1,17.85,4.15h0a68.9,68.9,0,0,1,7.25,3.29,85.49,85.49,0,0,0-25.5-15.46,49.49,49.49,0,0,0-13-1.9"/><path d="M123.17,100.85c5.39,0,1.18-14.84,1.18-16.58h-2c0,.31,3.22,13.21.84,14.57-2.22,1.27-3.49-2.39-3.53-2.67l-1,.15-1,.14A5.29,5.29,0,0,0,123.17,100.85Z"/><text class="cls-2" transform="translate(190.2 93.97)"><tspan class="cls-3">S</tspan><tspan class="cls-4" x="50.34" y="0">o</tspan><tspan class="cls-5" x="128.55" y="0">l</tspan><tspan x="176.49" y="0">o </tspan><tspan class="cls-6" x="0" y="72.79">P</tspan><tspan class="cls-3" x="49.96" y="72.79">re</tspan><tspan class="cls-7" x="151.32" y="72.79">s</tspan><tspan x="197.82" y="72.79">s</tspan></text></svg>