<svg viewBox="0 0 450 200" xmlns="http://www.w3.org/2000/svg"><path d="m121 115c-.11 0-.38-.09-.76-.14.32.04.6.14.76.14z"/><path d="m115.71 119.74c.38.05.33-.32.55-.34h.23l-.51-.1c-.27-.06-.67.39-.27.44z"/><path d="m111.68 117c.6.34 3.08 1.43 9.21 1.43h.22c6.13 0 8.61-1.09 9.23-1.43.4-.22.51-.37.5-.41l-.23-.09a5.66 5.66 0 0 1 -1.74 0 5.39 5.39 0 0 1 -2.21 0 16.83 16.83 0 0 1 -3 .24c-.82 0-2-.1-2.27-.13s-1.54.13-2.36.13a17.06 17.06 0 0 1 -3-.24 5.32 5.32 0 0 1 -2.22 0 7.66 7.66 0 0 1 -2.13-.09 2.83 2.83 0 0 1 -.35-.06l.42-.25-.42.25a2.83 2.83 0 0 0 .35.06l-.44.18s.03.19.44.41z"/><path d="m117.6 119.34c-.23-.05-.94.48-.56.5s.45-.08.68-.29-.12-.21-.12-.21z"/><path d="m88.83 182.3c-1.69-.17-3.42-.13-5.06-.39 1.64.26 3.37.23 5.06.39z"/><path d="m113.72 116.19h.11.1a4.57 4.57 0 0 0 2 0l.45-.07v.16a20.91 20.91 0 0 0 2.61.16c.86 0 2.29-.13 2.3-.13h.13s1.35.13 2.21.13a21.12 21.12 0 0 0 2.62-.16v-.16l.45.07a4.45 4.45 0 0 0 2 0h.1.11c.54 0 .87.07 1.13.06a22.48 22.48 0 0 0 -5.73-1.38 11.7 11.7 0 0 0 -3 .3h-.05-.48a11.82 11.82 0 0 0 -3-.31 21.82 21.82 0 0 0 -5.52 1.31 7.85 7.85 0 0 0 1.46.02z"/><path d="m126.17 119.29a1.93 1.93 0 0 0 -.68.13c.45.13 1.23.5 1.17.68s.9-.13.62-.53-.67-.3-1.11-.28z"/><path d="m72.59 52.26c-.48 14.58-3.87 40.48 11.27 59.83 16.11 20.59 26.41 29.54 40.28 26 8.39-2.16 16.88-10.58 22.33-21.22-6.4-4.23-11.41-14.18-16.64-25.71a65.8 65.8 0 0 0 -25.58-29.54c-8-5.11-21.89-8.32-31.67-9.32" fill="#fff"/><path d="m120 119.43c-.39 0-1.12.31-1 .55s.55-.21 1-.32 0-.23 0-.23z"/><path d="m122.7 119.85a3.7 3.7 0 0 0 .34.42c.39 0 .55-.53.33-.61s-.9-.13-.67.19z"/><path d="m131.11 116.85c.19-.17.23-.29.12-.37a26 26 0 0 0 -5-1.57 26 26 0 0 1 5 1.57c.11.08.08.2-.12.37-.78.66-3.77 1.78-10 1.78h-.22c-5.46 0-8.42-.86-9.59-1.51 1.17.66 4.12 1.52 9.59 1.52h.22c6.23-.01 9.22-1.12 10-1.79z"/><path d="m121.4 121.75h3.71c-1 0-2.26 0-3.71 0z"/><path d="m47.71 32.09c.38-1.16.9-2.29 1.34-3.44a85.87 85.87 0 0 0 -15.05 13.19v2.87c.82 16.5 5.47 29.44 14.21 40.56-5.84-18.6-6.06-36.41-.5-53.18z"/><path d="m58.77 46.3a73 73 0 0 1 14.16-26.92c.8-1 1.58-1.84 2.36-2.63a85 85 0 0 0 -22.12 9.35c-.43 1-.77 2-1.16 3-7.58 19.43-7.21 40.34 1.4 62.41v.29a1.18 1.18 0 0 1 0 .53 1.41 1.41 0 0 1 -.21.49c-.06.08 0 .19-.12.27s-.19.06-.28.11-.12.16-.21.2a1.57 1.57 0 0 1 -.53.1 1.39 1.39 0 0 1 -.93-.4s-.09 0-.12 0c-11.87-12.28-18.25-26.43-19.74-45-.08-1-.1-2-.16-3.06a86.38 86.38 0 0 0 -6.18 8.67c.1 1.1.1 2.32.23 3.39 3.47 29.79 17.57 46.84 29.59 56.1a77.16 77.16 0 0 0 25.51 12.91c-27.14-32.5-26.78-61.2-21.49-79.81z"/><path d="m24 110.22a52.2 52.2 0 0 1 -10.11-18.34 48.54 48.54 0 0 1 -1.28-5.24 81.37 81.37 0 0 0 .72 29.92c.89 1.08 1.79 2.13 2.72 3.14 20.95 22.42 53.3 25.91 53.75 25.95a1.46 1.46 0 0 1 -.14 2.92h-.14c-.43 0-30.19-3.19-51.79-23-1.05-1-2-2.06-3-3.11a84.08 84.08 0 0 0 5.15 13.84q2.11 2 4.25 3.84c16.6 14.1 33.87 18.4 47.27 18.96 19.92.82 36.9-6 43.21-9.75-17.91-1.48-67.92-11.95-90.61-39.13z"/><path d="m148.26 132.18c-4 7.75-15.89 26.72-39.65 35.93-17.26 6.69-37 6.69-59 .18-1.91-.57-3.87-1.26-5.82-1.93a85.4 85.4 0 0 0 37.07 16.94c2.82-.27 5.5-.59 8-1-1.69-.17-3.42-.13-5.06-.39 1.64.26 3.37.23 5.06.39 26.26-4.3 33.14-15.3 33.23-15.44a1.46 1.46 0 0 1 2.54 1.46c-.32.56-5.44 9-23.51 14.32-2.66.78-5.68 1.48-8.93 2.09 1.63.09 3.27.19 4.92.19a84.74 84.74 0 0 0 32.89-6.59c.92-1 1.76-2.13 2.62-3.22a83.85 83.85 0 0 0 11.18-18.65c4.04-9.46 5.63-18.34 4.46-24.28z"/><path d="m155.62 98.19c-.47-1.4-1.08-2.73-1.62-4.09a69.5 69.5 0 0 0 -6.89-13.3c-16.52-24.15-45.26-32.49-60.11-35.28a94.84 94.84 0 0 0 -9.58-1.36 1.41 1.41 0 0 1 -.67-.32 1.38 1.38 0 0 1 -.7-1.2c.43-8.13 5.54-15.85 14-21.19a42.75 42.75 0 0 1 13-5.35 47.44 47.44 0 0 1 7.14-1.15 80.67 80.67 0 0 0 -29 .43 28.65 28.65 0 0 0 -3.09 2.62c-5.37 5.29-12.58 15.18-16.53 29.1-5.27 18.56-5.41 47.59 23.82 80.49a1.46 1.46 0 0 1 -1.09 2.41h-.23c-.63-.1-15.66-2.64-31-14.44-12-9.2-25.9-25.89-30.23-54.33-.18-1.1-.41-2.1-.55-3.22a85.43 85.43 0 0 0 -7.6 18.84 49.26 49.26 0 0 0 .31 6.82 47.94 47.94 0 0 0 11.2 24.68c25.66 30.65 84.8 38.26 92.26 38.26a1.47 1.47 0 0 1 1.42 1.82c-.72 2.9-15 10.29-32.6 12.79a90.6 90.6 0 0 1 -12.61.91 78.09 78.09 0 0 1 -46.28-15c-1.59-1.14-3.12-2.3-4.61-3.51a84.89 84.89 0 0 0 14 17.55c1.63.65 3.2 1.13 4.8 1.7 24.51 8.81 46.34 9.77 65 2.54 28.49-11 39.48-37.41 39.59-37.68a1.48 1.48 0 0 1 1.3-.92 1.46 1.46 0 0 1 1.36.82c3.21 6.45 2 17.67-3.33 30a87.73 87.73 0 0 1 -8.09 14.55c-.78 1.15-1.55 2.28-2.39 3.4a84.74 84.74 0 0 0 18.17-12.39c.32-1.17.7-2.38 1-3.53 5.97-23.78 6.12-44.35.43-61.47zm-31.48 39.81c-13.87 3.58-24.17-5.37-40.28-26-15.14-19.26-11.75-45.17-11.27-59.74 9.77 1 23.64 4.21 31.67 9.32a65.8 65.8 0 0 1 25.58 29.54c5.23 11.52 10.24 21.47 16.64 25.71-5.48 10.63-13.95 19.05-22.34 21.17z"/><path d="m177.82 121.2c.14 1.86.16 3.87.25 5.78a86.16 86.16 0 0 0 4.58-27.61 85.11 85.11 0 0 0 -20.06-54.94 66.15 66.15 0 0 0 -7.58-5.2 62.75 62.75 0 0 0 -26.84-8.64 69.24 69.24 0 0 0 -18.32.93 63.81 63.81 0 0 1 31.33 10.26c.9.6 1.79 1.28 2.68 1.93s1.7 1.19 2.53 1.87a68.08 68.08 0 0 1 11.17 12c.59.78 1.23 1.49 1.79 2.32 10.33 15 16.54 35.48 18.49 61.32"/><path d="m134.32 115.52c-1.55-1.55-3.45-3.21-6.47-3.21a7.14 7.14 0 0 0 -4.2 1.1 7.24 7.24 0 0 0 -4.21-1.1c-3 0-4.85 1.58-6.48 3.21a6.14 6.14 0 0 1 -3.51 1.65h-.39l.28.14a23.74 23.74 0 0 1 3.63 2.21l.33.26c2.1 1.65 2.74 2.15 10.34 2.15 7.59 0 8.22-.5 10.31-2.14l.34-.27a23.8 23.8 0 0 1 3.65-2.21l.29-.14h-.4a6.23 6.23 0 0 1 -3.51-1.65zm-14.88-3a6.33 6.33 0 0 1 4 1.14h.07-.07a6.34 6.34 0 0 0 -4-1.14 6.85 6.85 0 0 0 -1.91.26 6.85 6.85 0 0 1 1.91-.28zm3.82 3.06c-.09 0-.33-.08-.66-.13.33.04.57.09.67.11zm-4.07 4c-.19 0-.14.36-.47.31s0-.46.24-.44l.44.1zm1.27.14c-.19.19-.24.29-.59.26s.28-.51.48-.46c.01.04.31.04.12.24zm1.89.09c-.35.1-.73.51-.83.29s.53-.53.87-.5c.02.04.3.16-.03.25zm2.71.56a3.36 3.36 0 0 1 -.29-.39c-.2-.29.39-.24.58-.17s.06.62-.28.6zm-1.41 1.36h3.21c-.86.02-1.94.04-3.2.04zm4.13-2.25c.38 0 .72-.1 1 .27s-.59.65-.54.48m5.77-.82-.33.27a7.12 7.12 0 0 1 -4.82 1.9 7.12 7.12 0 0 0 4.82-1.9l.33-.27a24.3 24.3 0 0 1 3.47-2.13 6.46 6.46 0 0 1 -3.47-1.72c-1.49-1.5-3.32-3.1-6.13-3.1a7.53 7.53 0 0 0 -3.13.61 7.52 7.52 0 0 1 3.13-.61c2.8 0 4.63 1.6 6.13 3.1a6.47 6.47 0 0 0 3.48 1.72 24.36 24.36 0 0 0 -3.49 2.17z"/><path d="m111.69 79.76c.67-.23 1.07-.38 1.22-.74s0-.8-.39-1.43l-.21-.39a12.94 12.94 0 0 0 -3.74-4.69c-2.32-1.76-3.83-2.35-5.17-2.12a.24.24 0 0 0 -.2.19.23.23 0 0 0 .1.25 32.45 32.45 0 0 1 4.56 3.29.58.58 0 0 1 .15.38c-.08.25-.81.47-1.57.71h-.11a14.18 14.18 0 0 1 -3.48.3 37.24 37.24 0 0 1 -7.41-.75c-1.18-.32-1.77-.53-2.12-.66a1.86 1.86 0 0 0 -.57-.15 1 1 0 0 0 -.3.06c-.34.13-.57.59-.82 1.06a3.63 3.63 0 0 1 -.48.81 1 1 0 0 0 -.33.77c.06.34.4.64 1.29 1.16a25.08 25.08 0 0 0 9.34 3 28.3 28.3 0 0 0 3.59.25 15.12 15.12 0 0 0 5.77-1z"/><path d="m114.88 17.74a42.06 42.06 0 0 0 -23.3 6.17c-7.15 4.52-11.65 10.82-12.51 17.46a111.86 111.86 0 0 1 12 2c2.19.48 4.59 1.08 7.11 1.79 16 4.5 37.65 14 51.29 34a70.13 70.13 0 0 1 5.09 8.76c.63 1.26 1.09 2.64 1.64 3.95 7.42 17.56 8.41 38.87 2.86 63.7-.28 1.24-.47 2.45-.79 3.72a84.9 84.9 0 0 0 17.13-25.46c0-1.56-.13-3-.2-4.56-1.12-27.2-6.57-48.86-16.36-64.64-.58-.93-1.14-1.9-1.75-2.78a65.67 65.67 0 0 0 -12.6-14 59 59 0 0 0 -5.59-4c-1.06-.68-2.11-1.33-3.17-1.91a62.62 62.62 0 0 0 -38.05-7 1.46 1.46 0 0 1 -.87-2.77 69.08 69.08 0 0 1 31.45-4.51 66.68 66.68 0 0 1 17.85 4.15 68.9 68.9 0 0 1 7.25 3.29 85.49 85.49 0 0 0 -25.5-15.46 49.49 49.49 0 0 0 -13-1.9"/><path d="m123.17 100.85c5.39 0 1.18-14.84 1.18-16.58h-2c0 .31 3.22 13.21.84 14.57-2.22 1.27-3.49-2.39-3.53-2.67l-1 .15-1 .14a5.29 5.29 0 0 0 5.51 4.39z"/><path d="m208.26 77.07a6 6 0 0 0 6 6.05c3.55 0 5.76-2 5.76-5 0-4.32-5.67-5.57-10.37-7.21-9.7-3.46-15.08-8-15.08-17.87 0-10.18 8.74-18.64 19.6-18.64 12.78 0 18.83 8.17 19.6 18.83h-13.31a5.59 5.59 0 0 0 -6-6c-3.07 0-6.05 1.83-6.05 5.57 0 4.32 5.28 5.09 10.18 6.53 10.28 3.07 15.08 8.84 15.08 17.87 0 10.18-8.65 18.64-19.5 18.64-12.58 0-19.69-8.45-19.69-18.83zm6 16.14v-7.4c-4.9-.1-8-2.88-8.84-6.05h-7.49c.15 7.24 7.16 13.45 16.29 13.45zm16-42.65c-.58-5.67-4.8-13.45-16-13.45v7.49c6 0 8 3.55 8.84 6z"/><path d="m276.76 34.41c18.16 0 31 13.55 31 30.74s-12.87 30.74-31 30.74-31-13.54-31-30.74 12.75-30.74 31-30.74zm0 58.6a26.87 26.87 0 0 0 26.9-21.81h-7.4c-2.3 8.36-9.41 14.31-19.5 14.31s-17.2-6.05-19.5-14.31h-7.4c2.5 12.69 12.97 21.8 26.9 21.8zm0-10.47c10.18 0 16.72-7.69 16.72-17.39s-6.53-17.39-16.72-17.39-16.76 7.69-16.76 17.39 6.48 17.39 16.76 17.39z"/><path d="m323.36 36.33h14.12v45.54h25.07v12.13h-39.2zm10.57 48.23v-45.56h-7v52.28z"/><path d="m402.91 34.41c18.16 0 31 13.55 31 30.74s-12.87 30.74-31 30.74-31-13.54-31-30.74 12.75-30.74 31-30.74zm0 58.6a26.87 26.87 0 0 0 26.9-21.81h-7.4c-2.3 8.36-9.41 14.31-19.5 14.31s-17.2-6.05-19.5-14.31h-7.41c2.51 12.69 13 21.8 26.91 21.8zm0-10.47c10.18 0 16.72-7.69 16.72-17.39s-6.53-17.39-16.72-17.39-16.72 7.69-16.72 17.39 6.44 17.39 16.72 17.39z"/><path d="m194.81 109.13h24.11c11.82 0 18.73 8.74 18.73 18.45 0 10.76-8.07 18.45-18.73 18.45h-10.08v20.75h-14zm10.47 55v-52.31h-6.92v52.26zm12.3-30.17c3.65 0 5.67-3.36 5.67-6.73 0-3.17-1.92-6.05-5.67-6.05h-8.74v12.78z"/><path d="m244.77 109.13h24.11c12.39 0 20.46 7.49 20.46 18.35 0 10.09-5.09 15.75-13.64 17.87l15.56 21.42h-17.67l-14.7-21.52v21.52h-14.12zm10.57 55v-52.31h-7v52.26zm14.89-30c3.17 0 5.28-3.27 5.28-6.63s-2.5-6.34-5.67-6.34h-11v13z"/><path d="m298.19 109.13h38.14v12.49h-24v10.38h22.17v12.3h-22.19v10.38h25.07v12.1h-39.2zm10.57 48.23v-38.44l-7-7.11v52.26z"/><path d="m359.58 149.86a6 6 0 0 0 6 6.05c3.55 0 5.76-2 5.76-5 0-4.32-5.67-5.57-10.37-7.21-9.7-3.46-15.08-8-15.08-17.87 0-10.18 8.74-18.64 19.6-18.64 12.78 0 18.83 8.17 19.6 18.83h-13.31a5.59 5.59 0 0 0 -6-6c-3.07 0-6.05 1.83-6.05 5.57 0 4.32 5.28 5.09 10.18 6.53 10.32 3.14 15.09 8.88 15.09 17.93 0 10.18-8.65 18.64-19.5 18.64-12.58 0-19.69-8.45-19.69-18.83zm6 16.14v-7.4c-4.9-.1-8-2.88-8.84-6.05h-7.54c.2 7.2 7.21 13.45 16.34 13.45zm16-42.65c-.58-5.67-4.8-13.45-16-13.45v7.49c6 0 8 3.55 8.84 6z"/><path d="m406.08 149.86a6 6 0 0 0 6 6.05c3.55 0 5.76-2 5.76-5 0-4.32-5.67-5.57-10.37-7.21-9.7-3.46-15.08-8-15.08-17.87 0-10.18 8.74-18.64 19.6-18.64 12.78 0 18.83 8.17 19.6 18.83h-13.31a5.59 5.59 0 0 0 -6-6c-3.07 0-6.05 1.83-6.05 5.57 0 4.32 5.28 5.09 10.18 6.53 10.28 3.07 15.08 8.84 15.08 17.87 0 10.18-8.65 18.64-19.5 18.64-12.58 0-19.69-8.45-19.69-18.83zm5.92 16.14v-7.4c-4.9-.1-8-2.88-8.84-6.05h-7.46c.2 7.2 7.21 13.45 16.3 13.45zm16-42.65c-.58-5.67-4.8-13.45-16-13.45v7.49c6 0 8 3.55 8.84 6z"/></svg>